<?xml version="1.0" encoding="UTF-8" standalone="no"?>
<!DOCTYPE svg PUBLIC "-//W3C//DTD SVG 1.1//EN"
 "http://www.w3.org/Graphics/SVG/1.1/DTD/svg11.dtd">
<!-- Generated by graphviz version 2.43.0 (0)
 -->
<!-- Title: %3 Pages: 1 -->
<svg width="1517pt" height="996pt"
 viewBox="0.00 0.00 1517.34 996.04" xmlns="http://www.w3.org/2000/svg" xmlns:xlink="http://www.w3.org/1999/xlink">
<g id="graph0" class="graph" transform="scale(1 1) rotate(0) translate(4 992.04)">
<title>%3</title>
<polygon fill="white" stroke="transparent" points="-4,4 -4,-992.04 1513.34,-992.04 1513.34,4 -4,4"/>
<!-- rscache -->
<g id="node1" class="node">
<title>rscache</title>
<path fill="none" stroke="black" d="M778.56,-800.06C778.56,-800.06 731.56,-800.06 731.56,-800.06 725.56,-800.06 719.56,-794.06 719.56,-788.06 719.56,-788.06 719.56,-776.06 719.56,-776.06 719.56,-770.06 725.56,-764.06 731.56,-764.06 731.56,-764.06 778.56,-764.06 778.56,-764.06 784.56,-764.06 790.56,-770.06 790.56,-776.06 790.56,-776.06 790.56,-788.06 790.56,-788.06 790.56,-794.06 784.56,-800.06 778.56,-800.06"/>
<text text-anchor="start" x="727.56" y="-783.86" font-family="Times,serif" font-size="14.00">rscache</text>
<text text-anchor="start" x="739.56" y="-773.06" font-family="Times,serif" font-size="10.00">v0.1.1</text>
</g>
<!-- rsstorage -->
<g id="node15" class="node">
<title>rsstorage</title>
<path fill="none" stroke="black" d="M1216.56,-800.06C1216.56,-800.06 1155.56,-800.06 1155.56,-800.06 1149.56,-800.06 1143.56,-794.06 1143.56,-788.06 1143.56,-788.06 1143.56,-776.06 1143.56,-776.06 1143.56,-770.06 1149.56,-764.06 1155.56,-764.06 1155.56,-764.06 1216.56,-764.06 1216.56,-764.06 1222.56,-764.06 1228.56,-770.06 1228.56,-776.06 1228.56,-776.06 1228.56,-788.06 1228.56,-788.06 1228.56,-794.06 1222.56,-800.06 1216.56,-800.06"/>
<text text-anchor="start" x="1151.56" y="-783.86" font-family="Times,serif" font-size="14.00">rsstorage</text>
<text text-anchor="start" x="1170.56" y="-773.06" font-family="Times,serif" font-size="10.00">v0.3.0</text>
</g>
<!-- rscache&#45;&gt;rsstorage -->
<g id="edge1" class="edge">
<title>rscache&#45;&gt;rsstorage</title>
<path fill="none" stroke="black" d="M790.7,-782.06C866.56,-782.06 1044.31,-782.06 1133.33,-782.06"/>
<polygon fill="black" stroke="black" points="1133.47,-785.56 1143.47,-782.06 1133.47,-778.56 1133.47,-785.56"/>
<text text-anchor="start" x="931.01" y="-785.06" font-family="Times,serif" font-size="10.00">v0.3.0</text>
</g>
<!-- rselection/impls/local -->
<g id="node2" class="node">
<title>rselection/impls/local</title>
<path fill="none" stroke="black" d="M826.26,-149.37C826.26,-149.37 682.26,-149.37 682.26,-149.37 676.26,-149.37 670.26,-143.37 670.26,-137.37 670.26,-137.37 670.26,-125.37 670.26,-125.37 670.26,-119.37 676.26,-113.37 682.26,-113.37 682.26,-113.37 826.26,-113.37 826.26,-113.37 832.26,-113.37 838.26,-119.37 838.26,-125.37 838.26,-125.37 838.26,-137.37 838.26,-137.37 838.26,-143.37 832.26,-149.37 826.26,-149.37"/>
<text text-anchor="start" x="678.26" y="-133.17" font-family="Times,serif" font-size="14.00">rselection/impls/local</text>
<text text-anchor="start" x="738.76" y="-122.37" font-family="Times,serif" font-size="10.00">v0.1.1</text>
</g>
<!-- rselection -->
<g id="node4" class="node">
<title>rselection</title>
<path fill="none" stroke="black" d="M785.76,-696.76C785.76,-696.76 722.76,-696.76 722.76,-696.76 716.76,-696.76 710.76,-690.76 710.76,-684.76 710.76,-684.76 710.76,-672.76 710.76,-672.76 710.76,-666.76 716.76,-660.76 722.76,-660.76 722.76,-660.76 785.76,-660.76 785.76,-660.76 791.76,-660.76 797.76,-666.76 797.76,-672.76 797.76,-672.76 797.76,-684.76 797.76,-684.76 797.76,-690.76 791.76,-696.76 785.76,-696.76"/>
<text text-anchor="start" x="718.76" y="-680.56" font-family="Times,serif" font-size="14.00">rselection</text>
<text text-anchor="start" x="738.76" y="-669.76" font-family="Times,serif" font-size="10.00">v0.1.1</text>
</g>
<!-- rselection/impls/local&#45;&gt;rselection -->
<g id="edge3" class="edge">
<title>rselection/impls/local&#45;&gt;rselection</title>
<path fill="none" stroke="black" d="M754.26,-149.58C754.26,-229.87 754.26,-552.58 754.26,-650.47"/>
<polygon fill="black" stroke="black" points="750.76,-650.76 754.26,-660.76 757.76,-650.76 750.76,-650.76"/>
<text text-anchor="start" x="723.26" y="-403.02" font-family="Times,serif" font-size="10.00">v0.1.1</text>
</g>
<!-- rsnotify/listeners/local -->
<g id="node6" class="node">
<title>rsnotify/listeners/local</title>
<path fill="none" stroke="black" d="M556.56,-36C556.56,-36 404.56,-36 404.56,-36 398.56,-36 392.56,-30 392.56,-24 392.56,-24 392.56,-12 392.56,-12 392.56,-6 398.56,0 404.56,0 404.56,0 556.56,0 556.56,0 562.56,0 568.56,-6 568.56,-12 568.56,-12 568.56,-24 568.56,-24 568.56,-30 562.56,-36 556.56,-36"/>
<text text-anchor="start" x="400.56" y="-19.8" font-family="Times,serif" font-size="14.00">rsnotify/listeners/local</text>
<text text-anchor="start" x="465.06" y="-9" font-family="Times,serif" font-size="10.00">v1.4.1</text>
</g>
<!-- rselection/impls/local&#45;&gt;rsnotify/listeners/local -->
<g id="edge5" class="edge">
<title>rselection/impls/local&#45;&gt;rsnotify/listeners/local</title>
<path fill="none" stroke="black" d="M710.59,-113.28C662.43,-93.33 584.93,-61.23 533.39,-39.88"/>
<polygon fill="black" stroke="black" points="534.66,-36.62 524.08,-36.02 531.98,-43.09 534.66,-36.62"/>
<text text-anchor="start" x="590.99" y="-79.58" font-family="Times,serif" font-size="10.00">v1.4.1</text>
</g>
<!-- rsnotify -->
<g id="node9" class="node">
<title>rsnotify</title>
<path fill="none" stroke="black" d="M891.63,-423.06C891.63,-423.06 843.63,-423.06 843.63,-423.06 837.63,-423.06 831.63,-417.06 831.63,-411.06 831.63,-411.06 831.63,-399.06 831.63,-399.06 831.63,-393.06 837.63,-387.06 843.63,-387.06 843.63,-387.06 891.63,-387.06 891.63,-387.06 897.63,-387.06 903.63,-393.06 903.63,-399.06 903.63,-399.06 903.63,-411.06 903.63,-411.06 903.63,-417.06 897.63,-423.06 891.63,-423.06"/>
<text text-anchor="start" x="839.63" y="-406.86" font-family="Times,serif" font-size="14.00">rsnotify</text>
<text text-anchor="start" x="852.13" y="-396.06" font-family="Times,serif" font-size="10.00">v1.5.2</text>
</g>
<!-- rselection/impls/local&#45;&gt;rsnotify -->
<g id="edge4" class="edge">
<title>rselection/impls/local&#45;&gt;rsnotify</title>
<path fill="none" stroke="black" d="M761.88,-149.75C781.36,-196.79 833.1,-321.71 856.21,-377.49"/>
<polygon fill="black" stroke="black" points="852.99,-378.86 860.05,-386.76 859.45,-376.18 852.99,-378.86"/>
<text text-anchor="start" x="778.04" y="-266.62" font-family="Times,serif" font-size="10.00">v1.4.0</text>
</g>
<!-- rselection/impls/pgx -->
<g id="node3" class="node">
<title>rselection/impls/pgx</title>
<path fill="none" stroke="black" d="M275.37,-696.76C275.37,-696.76 138.37,-696.76 138.37,-696.76 132.37,-696.76 126.37,-690.76 126.37,-684.76 126.37,-684.76 126.37,-672.76 126.37,-672.76 126.37,-666.76 132.37,-660.76 138.37,-660.76 138.37,-660.76 275.37,-660.76 275.37,-660.76 281.37,-660.76 287.37,-666.76 287.37,-672.76 287.37,-672.76 287.37,-684.76 287.37,-684.76 287.37,-690.76 281.37,-696.76 275.37,-696.76"/>
<text text-anchor="start" x="134.37" y="-680.56" font-family="Times,serif" font-size="14.00">rselection/impls/pgx</text>
<text text-anchor="start" x="191.37" y="-669.76" font-family="Times,serif" font-size="10.00">v0.1.3</text>
</g>
<!-- rselection/impls/pgx&#45;&gt;rselection -->
<g id="edge6" class="edge">
<title>rselection/impls/pgx&#45;&gt;rselection</title>
<path fill="none" stroke="black" d="M287.64,-678.76C400.98,-678.76 604.13,-678.76 700.59,-678.76"/>
<polygon fill="black" stroke="black" points="700.7,-682.26 710.7,-678.76 700.7,-675.26 700.7,-682.26"/>
<text text-anchor="start" x="463.11" y="-681.76" font-family="Times,serif" font-size="10.00">v0.1.1</text>
</g>
<!-- rsnotify/listeners/postgrespgx -->
<g id="node7" class="node">
<title>rsnotify/listeners/postgrespgx</title>
<path fill="none" stroke="black" d="M584.56,-810.13C584.56,-810.13 376.56,-810.13 376.56,-810.13 370.56,-810.13 364.56,-804.13 364.56,-798.13 364.56,-798.13 364.56,-786.13 364.56,-786.13 364.56,-780.13 370.56,-774.13 376.56,-774.13 376.56,-774.13 584.56,-774.13 584.56,-774.13 590.56,-774.13 596.56,-780.13 596.56,-786.13 596.56,-786.13 596.56,-798.13 596.56,-798.13 596.56,-804.13 590.56,-810.13 584.56,-810.13"/>
<text text-anchor="start" x="372.56" y="-793.93" font-family="Times,serif" font-size="14.00">rsnotify/listeners/postgrespgx</text>
<text text-anchor="start" x="465.06" y="-783.13" font-family="Times,serif" font-size="10.00">v1.5.3</text>
</g>
<!-- rselection/impls/pgx&#45;&gt;rsnotify/listeners/postgrespgx -->
<g id="edge8" class="edge">
<title>rselection/impls/pgx&#45;&gt;rsnotify/listeners/postgrespgx</title>
<path fill="none" stroke="black" d="M250.54,-696.85C298.7,-716.8 376.19,-748.9 427.74,-770.25"/>
<polygon fill="black" stroke="black" points="426.47,-773.51 437.05,-774.11 429.15,-767.04 426.47,-773.51"/>
<text text-anchor="start" x="308.14" y="-736.55" font-family="Times,serif" font-size="10.00">v1.4.1</text>
</g>
<!-- rselection/impls/pgx&#45;&gt;rsnotify -->
<g id="edge7" class="edge">
<title>rselection/impls/pgx&#45;&gt;rsnotify</title>
<path fill="none" stroke="black" d="M250.48,-660.7C369.8,-611.27 700.8,-474.17 822.22,-423.87"/>
<polygon fill="black" stroke="black" points="823.72,-427.04 831.62,-419.98 821.04,-420.58 823.72,-427.04"/>
<text text-anchor="start" x="505.35" y="-545.29" font-family="Times,serif" font-size="10.00">v1.4.0</text>
</g>
<!-- rselection&#45;&gt;rsnotify -->
<g id="edge2" class="edge">
<title>rselection&#45;&gt;rsnotify</title>
<path fill="none" stroke="black" d="M761.88,-660.38C781.36,-613.34 833.1,-488.42 856.21,-432.64"/>
<polygon fill="black" stroke="black" points="859.45,-433.95 860.05,-423.37 852.99,-431.27 859.45,-433.95"/>
<text text-anchor="start" x="778.04" y="-549.51" font-family="Times,serif" font-size="10.00">v1.4.0</text>
</g>
<!-- rslog -->
<g id="node5" class="node">
<title>rslog</title>
<path fill="none" stroke="black" d="M473.56,-540.06C473.56,-540.06 443.56,-540.06 443.56,-540.06 437.56,-540.06 431.56,-534.06 431.56,-528.06 431.56,-528.06 431.56,-516.06 431.56,-516.06 431.56,-510.06 437.56,-504.06 443.56,-504.06 443.56,-504.06 473.56,-504.06 473.56,-504.06 479.56,-504.06 485.56,-510.06 485.56,-516.06 485.56,-516.06 485.56,-528.06 485.56,-528.06 485.56,-534.06 479.56,-540.06 473.56,-540.06"/>
<text text-anchor="start" x="440.06" y="-523.86" font-family="Times,serif" font-size="14.00">rslog</text>
<text text-anchor="start" x="443.06" y="-513.06" font-family="Times,serif" font-size="10.00">v1.6.0</text>
</g>
<!-- rsnotify/listeners/local&#45;&gt;rsnotify -->
<g id="edge9" class="edge">
<title>rsnotify/listeners/local&#45;&gt;rsnotify</title>
<path fill="none" stroke="black" d="M498.71,-36.15C561.44,-98.88 769.23,-306.67 842.1,-379.54"/>
<polygon fill="black" stroke="black" points="839.97,-382.36 849.52,-386.95 844.92,-377.41 839.97,-382.36"/>
<text text-anchor="start" x="639.41" y="-210.84" font-family="Times,serif" font-size="10.00">v1.4.0</text>
</g>
<!-- rsnotify/listeners/postgrespgx&#45;&gt;rsnotify -->
<g id="edge10" class="edge">
<title>rsnotify/listeners/postgrespgx&#45;&gt;rsnotify</title>
<path fill="none" stroke="black" d="M498.71,-773.98C561.44,-711.25 769.23,-503.46 842.1,-430.59"/>
<polygon fill="black" stroke="black" points="844.92,-432.72 849.52,-423.18 839.97,-427.77 844.92,-432.72"/>
<text text-anchor="start" x="639.41" y="-605.29" font-family="Times,serif" font-size="10.00">v1.5.2</text>
</g>
<!-- rsnotify/listeners/postgrespq -->
<g id="node8" class="node">
<title>rsnotify/listeners/postgrespq</title>
<path fill="none" stroke="black" d="M1151.63,-423.06C1151.63,-423.06 951.63,-423.06 951.63,-423.06 945.63,-423.06 939.63,-417.06 939.63,-411.06 939.63,-411.06 939.63,-399.06 939.63,-399.06 939.63,-393.06 945.63,-387.06 951.63,-387.06 951.63,-387.06 1151.63,-387.06 1151.63,-387.06 1157.63,-387.06 1163.63,-393.06 1163.63,-399.06 1163.63,-399.06 1163.63,-411.06 1163.63,-411.06 1163.63,-417.06 1157.63,-423.06 1151.63,-423.06"/>
<text text-anchor="start" x="947.63" y="-406.86" font-family="Times,serif" font-size="14.00">rsnotify/listeners/postgrespq</text>
<text text-anchor="start" x="1036.13" y="-396.06" font-family="Times,serif" font-size="10.00">v1.5.1</text>
</g>
<!-- rsnotify/listeners/postgrespq&#45;&gt;rsnotify -->
<g id="edge11" class="edge">
<title>rsnotify/listeners/postgrespq&#45;&gt;rsnotify</title>
<path fill="none" stroke="black" d="M939.56,-405.06C930.69,-405.06 922.08,-405.06 914.09,-405.06"/>
<polygon fill="black" stroke="black" points="913.96,-401.56 903.96,-405.06 913.96,-408.56 913.96,-401.56"/>
<text text-anchor="start" x="903.57" y="-397.06" font-family="Times,serif" font-size="10.00">v1.5.1</text>
</g>
<!-- rsqueue/impls/database -->
<g id="node10" class="node">
<title>rsqueue/impls/database</title>
<path fill="none" stroke="black" d="M175,-423.06C175,-423.06 12,-423.06 12,-423.06 6,-423.06 0,-417.06 0,-411.06 0,-411.06 0,-399.06 0,-399.06 0,-393.06 6,-387.06 12,-387.06 12,-387.06 175,-387.06 175,-387.06 181,-387.06 187,-393.06 187,-399.06 187,-399.06 187,-411.06 187,-411.06 187,-417.06 181,-423.06 175,-423.06"/>
<text text-anchor="start" x="8" y="-406.86" font-family="Times,serif" font-size="14.00">rsqueue/impls/database</text>
<text text-anchor="start" x="78" y="-396.06" font-family="Times,serif" font-size="10.00">v0.1.2</text>
</g>
<!-- rsqueue/impls/database&#45;&gt;rsnotify/listeners/local -->
<g id="edge14" class="edge">
<title>rsqueue/impls/database&#45;&gt;rsnotify/listeners/local</title>
<path fill="none" stroke="black" d="M111.65,-386.92C174.38,-324.19 382.17,-116.4 455.04,-43.53"/>
<polygon fill="black" stroke="black" points="457.86,-45.66 462.45,-36.11 452.91,-40.71 457.86,-45.66"/>
<text text-anchor="start" x="252.34" y="-218.22" font-family="Times,serif" font-size="10.00">v1.4.1</text>
</g>
<!-- rsqueue/impls/database&#45;&gt;rsnotify -->
<g id="edge13" class="edge">
<title>rsqueue/impls/database&#45;&gt;rsnotify</title>
<path fill="none" stroke="black" d="M187.26,-405.06C354.09,-405.06 696.6,-405.06 821.09,-405.06"/>
<polygon fill="black" stroke="black" points="821.41,-408.56 831.41,-405.06 821.41,-401.56 821.41,-408.56"/>
<text text-anchor="start" x="473.18" y="-408.06" font-family="Times,serif" font-size="10.00">v1.5.1</text>
</g>
<!-- rsqueue -->
<g id="node11" class="node">
<title>rsqueue</title>
<path fill="none" stroke="black" d="M231.87,-149.37C231.87,-149.37 181.87,-149.37 181.87,-149.37 175.87,-149.37 169.87,-143.37 169.87,-137.37 169.87,-137.37 169.87,-125.37 169.87,-125.37 169.87,-119.37 175.87,-113.37 181.87,-113.37 181.87,-113.37 231.87,-113.37 231.87,-113.37 237.87,-113.37 243.87,-119.37 243.87,-125.37 243.87,-125.37 243.87,-137.37 243.87,-137.37 243.87,-143.37 237.87,-149.37 231.87,-149.37"/>
<text text-anchor="start" x="177.87" y="-133.17" font-family="Times,serif" font-size="14.00">rsqueue</text>
<text text-anchor="start" x="191.37" y="-122.37" font-family="Times,serif" font-size="10.00">v0.3.1</text>
</g>
<!-- rsqueue/impls/database&#45;&gt;rsqueue -->
<g id="edge15" class="edge">
<title>rsqueue/impls/database&#45;&gt;rsqueue</title>
<path fill="none" stroke="black" d="M101.11,-386.68C120.6,-339.65 172.34,-214.72 195.45,-158.94"/>
<polygon fill="black" stroke="black" points="198.69,-160.25 199.29,-149.67 192.23,-157.57 198.69,-160.25"/>
<text text-anchor="start" x="117.28" y="-275.81" font-family="Times,serif" font-size="10.00">v0.2.2</text>
</g>
<!-- rsqueue&#45;&gt;rsnotify -->
<g id="edge12" class="edge">
<title>rsqueue&#45;&gt;rsnotify</title>
<path fill="none" stroke="black" d="M244.29,-146.87C357.79,-193.88 697.96,-334.78 821.85,-386.1"/>
<polygon fill="black" stroke="black" points="820.85,-389.48 831.43,-390.07 823.53,-383.01 820.85,-389.48"/>
<text text-anchor="start" x="502.07" y="-269.49" font-family="Times,serif" font-size="10.00">v1.5.2</text>
</g>
<!-- rsstorage/servers/file -->
<g id="node12" class="node">
<title>rsstorage/servers/file</title>
<path fill="none" stroke="black" d="M1146.19,-612.09C1146.19,-612.09 1001.19,-612.09 1001.19,-612.09 995.19,-612.09 989.19,-606.09 989.19,-600.09 989.19,-600.09 989.19,-588.09 989.19,-588.09 989.19,-582.09 995.19,-576.09 1001.19,-576.09 1001.19,-576.09 1146.19,-576.09 1146.19,-576.09 1152.19,-576.09 1158.19,-582.09 1158.19,-588.09 1158.19,-588.09 1158.19,-600.09 1158.19,-600.09 1158.19,-606.09 1152.19,-612.09 1146.19,-612.09"/>
<text text-anchor="start" x="997.19" y="-595.89" font-family="Times,serif" font-size="14.00">rsstorage/servers/file</text>
<text text-anchor="start" x="1058.19" y="-585.09" font-family="Times,serif" font-size="10.00">v1.6.1</text>
</g>
<!-- rsstorage/servers/file&#45;&gt;rsstorage -->
<g id="edge16" class="edge">
<title>rsstorage/servers/file&#45;&gt;rsstorage</title>
<path fill="none" stroke="black" d="M1084.47,-612.12C1104.3,-645.29 1146.68,-716.19 1169.95,-755.11"/>
<polygon fill="black" stroke="black" points="1167.02,-757.03 1175.16,-763.82 1173.03,-753.44 1167.02,-757.03"/>
<text text-anchor="start" x="1096.21" y="-686.61" font-family="Times,serif" font-size="10.00">v0.3.0</text>
</g>
<!-- rsstorage/servers/postgres -->
<g id="node13" class="node">
<title>rsstorage/servers/postgres</title>
<path fill="none" stroke="black" d="M1497.34,-790.07C1497.34,-790.07 1312.34,-790.07 1312.34,-790.07 1306.34,-790.07 1300.34,-784.07 1300.34,-778.07 1300.34,-778.07 1300.34,-766.07 1300.34,-766.07 1300.34,-760.07 1306.34,-754.07 1312.34,-754.07 1312.34,-754.07 1497.34,-754.07 1497.34,-754.07 1503.34,-754.07 1509.34,-760.07 1509.34,-766.07 1509.34,-766.07 1509.34,-778.07 1509.34,-778.07 1509.34,-784.07 1503.34,-790.07 1497.34,-790.07"/>
<text text-anchor="start" x="1308.34" y="-773.87" font-family="Times,serif" font-size="14.00">rsstorage/servers/postgres</text>
<text text-anchor="start" x="1389.34" y="-763.07" font-family="Times,serif" font-size="10.00">v0.3.1</text>
</g>
<!-- rsstorage/servers/postgres&#45;&gt;rsstorage -->
<g id="edge17" class="edge">
<title>rsstorage/servers/postgres&#45;&gt;rsstorage</title>
<path fill="none" stroke="black" d="M1300.26,-776.85C1278.84,-777.83 1257.19,-778.81 1238.57,-779.67"/>
<polygon fill="black" stroke="black" points="1238.4,-776.17 1228.57,-780.12 1238.72,-783.16 1238.4,-776.17"/>
<text text-anchor="start" x="1238.41" y="-781.26" font-family="Times,serif" font-size="10.00">v0.3.0</text>
</g>
<!-- rsstorage/servers/s3server -->
<g id="node14" class="node">
<title>rsstorage/servers/s3server</title>
<path fill="none" stroke="black" d="M1166.19,-988.04C1166.19,-988.04 981.19,-988.04 981.19,-988.04 975.19,-988.04 969.19,-982.04 969.19,-976.04 969.19,-976.04 969.19,-964.04 969.19,-964.04 969.19,-958.04 975.19,-952.04 981.19,-952.04 981.19,-952.04 1166.19,-952.04 1166.19,-952.04 1172.19,-952.04 1178.19,-958.04 1178.19,-964.04 1178.19,-964.04 1178.19,-976.04 1178.19,-976.04 1178.19,-982.04 1172.19,-988.04 1166.19,-988.04"/>
<text text-anchor="start" x="977.19" y="-971.84" font-family="Times,serif" font-size="14.00">rsstorage/servers/s3server</text>
<text text-anchor="start" x="1058.19" y="-961.04" font-family="Times,serif" font-size="10.00">v0.3.3</text>
</g>
<!-- rsstorage/servers/s3server&#45;&gt;rsstorage -->
<g id="edge18" class="edge">
<title>rsstorage/servers/s3server&#45;&gt;rsstorage</title>
<path fill="none" stroke="black" d="M1084.47,-952.01C1104.3,-918.84 1146.68,-847.94 1169.95,-809.02"/>
<polygon fill="black" stroke="black" points="1173.03,-810.69 1175.16,-800.31 1167.02,-807.1 1173.03,-810.69"/>
<text text-anchor="start" x="1096.21" y="-883.52" font-family="Times,serif" font-size="10.00">v0.3.0</text>
</g>
</g>
</svg>
