<?xml version="1.0" encoding="UTF-8" standalone="no"?>
<!DOCTYPE svg PUBLIC "-//W3C//DTD SVG 1.1//EN"
 "http://www.w3.org/Graphics/SVG/1.1/DTD/svg11.dtd">
<!-- Generated by graphviz version 2.43.0 (0)
 -->
<!-- Title: %3 Pages: 1 -->
<svg width="2129pt" height="1310pt"
 viewBox="0.00 0.00 2129.00 1310.00" xmlns="http://www.w3.org/2000/svg" xmlns:xlink="http://www.w3.org/1999/xlink">
<g id="graph0" class="graph" transform="scale(1 1) rotate(0) translate(4 1306)">
<title>%3</title>
<polygon fill="white" stroke="transparent" points="-4,4 -4,-1306 2125,-1306 2125,4 -4,4"/>
<!-- github.com/rstudio/platform&#45;lib/pkg/rscache -->
<g id="node1" class="node">
<title>github.com/rstudio/platform&#45;lib/pkg/rscache</title>
<path fill="none" stroke="black" d="M1594.7,-765.01C1594.7,-765.01 1287.7,-765.01 1287.7,-765.01 1281.7,-765.01 1275.7,-759.01 1275.7,-753.01 1275.7,-753.01 1275.7,-741.01 1275.7,-741.01 1275.7,-735.01 1281.7,-729.01 1287.7,-729.01 1287.7,-729.01 1594.7,-729.01 1594.7,-729.01 1600.7,-729.01 1606.7,-735.01 1606.7,-741.01 1606.7,-741.01 1606.7,-753.01 1606.7,-753.01 1606.7,-759.01 1600.7,-765.01 1594.7,-765.01"/>
<text text-anchor="start" x="1283.7" y="-748.81" font-family="Times,serif" font-size="14.00">github.com/rstudio/platform&#45;lib/pkg/rscache</text>
<text text-anchor="start" x="1425.7" y="-738.01" font-family="Times,serif" font-size="10.00">v0.1.1</text>
</g>
<!-- github.com/rstudio/platform&#45;lib/pkg/rsstorage -->
<g id="node15" class="node">
<title>github.com/rstudio/platform&#45;lib/pkg/rsstorage</title>
<path fill="none" stroke="black" d="M1827.62,-1214.16C1827.62,-1214.16 1507.62,-1214.16 1507.62,-1214.16 1501.62,-1214.16 1495.62,-1208.16 1495.62,-1202.16 1495.62,-1202.16 1495.62,-1190.16 1495.62,-1190.16 1495.62,-1184.16 1501.62,-1178.16 1507.62,-1178.16 1507.62,-1178.16 1827.62,-1178.16 1827.62,-1178.16 1833.62,-1178.16 1839.62,-1184.16 1839.62,-1190.16 1839.62,-1190.16 1839.62,-1202.16 1839.62,-1202.16 1839.62,-1208.16 1833.62,-1214.16 1827.62,-1214.16"/>
<text text-anchor="start" x="1503.62" y="-1197.96" font-family="Times,serif" font-size="14.00">github.com/rstudio/platform&#45;lib/pkg/rsstorage</text>
<text text-anchor="start" x="1652.12" y="-1187.16" font-family="Times,serif" font-size="10.00">v0.3.0</text>
</g>
<!-- github.com/rstudio/platform&#45;lib/pkg/rscache&#45;&gt;github.com/rstudio/platform&#45;lib/pkg/rsstorage -->
<g id="edge1" class="edge">
<title>github.com/rstudio/platform&#45;lib/pkg/rscache&#45;&gt;github.com/rstudio/platform&#45;lib/pkg/rsstorage</title>
<path fill="none" stroke="black" d="M1450.36,-765.17C1485.45,-834.79 1611.53,-1084.9 1653.74,-1168.63"/>
<polygon fill="black" stroke="black" points="1650.72,-1170.42 1658.35,-1177.77 1656.97,-1167.27 1650.72,-1170.42"/>
<text text-anchor="start" x="1521.05" y="-969.9" font-family="Times,serif" font-size="10.00">v0.3.0</text>
</g>
<!-- github.com/rstudio/platform&#45;lib/pkg/rselection/impls/local -->
<g id="node2" class="node">
<title>github.com/rstudio/platform&#45;lib/pkg/rselection/impls/local</title>
<path fill="none" stroke="black" d="M416.31,-689.34C416.31,-689.34 12.31,-689.34 12.31,-689.34 6.31,-689.34 0.31,-683.34 0.31,-677.34 0.31,-677.34 0.31,-665.34 0.31,-665.34 0.31,-659.34 6.31,-653.34 12.31,-653.34 12.31,-653.34 416.31,-653.34 416.31,-653.34 422.31,-653.34 428.31,-659.34 428.31,-665.34 428.31,-665.34 428.31,-677.34 428.31,-677.34 428.31,-683.34 422.31,-689.34 416.31,-689.34"/>
<text text-anchor="start" x="8.31" y="-673.14" font-family="Times,serif" font-size="14.00">github.com/rstudio/platform&#45;lib/pkg/rselection/impls/local</text>
<text text-anchor="start" x="198.81" y="-662.34" font-family="Times,serif" font-size="10.00">v0.1.1</text>
</g>
<!-- github.com/rstudio/platform&#45;lib/pkg/rselection -->
<g id="node4" class="node">
<title>github.com/rstudio/platform&#45;lib/pkg/rselection</title>
<path fill="none" stroke="black" d="M410.65,-736.66C410.65,-736.66 87.65,-736.66 87.65,-736.66 81.65,-736.66 75.65,-730.66 75.65,-724.66 75.65,-724.66 75.65,-712.66 75.65,-712.66 75.65,-706.66 81.65,-700.66 87.65,-700.66 87.65,-700.66 410.65,-700.66 410.65,-700.66 416.65,-700.66 422.65,-706.66 422.65,-712.66 422.65,-712.66 422.65,-724.66 422.65,-724.66 422.65,-730.66 416.65,-736.66 410.65,-736.66"/>
<text text-anchor="start" x="83.65" y="-720.46" font-family="Times,serif" font-size="14.00">github.com/rstudio/platform&#45;lib/pkg/rselection</text>
<text text-anchor="start" x="233.65" y="-709.66" font-family="Times,serif" font-size="10.00">v0.1.1</text>
</g>
<!-- github.com/rstudio/platform&#45;lib/pkg/rselection/impls/local&#45;&gt;github.com/rstudio/platform&#45;lib/pkg/rselection -->
<g id="edge3" class="edge">
<title>github.com/rstudio/platform&#45;lib/pkg/rselection/impls/local&#45;&gt;github.com/rstudio/platform&#45;lib/pkg/rselection</title>
<path fill="none" stroke="black" d="M227.68,-689.5C228.35,-690.41 229.03,-691.33 229.72,-692.26"/>
<polygon fill="black" stroke="black" points="227.12,-694.65 235.87,-700.62 232.76,-690.5 227.12,-694.65"/>
<text text-anchor="start" x="197.7" y="-693.88" font-family="Times,serif" font-size="10.00">v0.1.1</text>
</g>
<!-- github.com/rstudio/platform&#45;lib/pkg/rsnotify/listeners/local -->
<g id="node6" class="node">
<title>github.com/rstudio/platform&#45;lib/pkg/rsnotify/listeners/local</title>
<path fill="none" stroke="black" d="M950.79,-589.04C950.79,-589.04 538.79,-589.04 538.79,-589.04 532.79,-589.04 526.79,-583.04 526.79,-577.04 526.79,-577.04 526.79,-565.04 526.79,-565.04 526.79,-559.04 532.79,-553.04 538.79,-553.04 538.79,-553.04 950.79,-553.04 950.79,-553.04 956.79,-553.04 962.79,-559.04 962.79,-565.04 962.79,-565.04 962.79,-577.04 962.79,-577.04 962.79,-583.04 956.79,-589.04 950.79,-589.04"/>
<text text-anchor="start" x="534.79" y="-572.84" font-family="Times,serif" font-size="14.00">github.com/rstudio/platform&#45;lib/pkg/rsnotify/listeners/local</text>
<text text-anchor="start" x="729.29" y="-562.04" font-family="Times,serif" font-size="10.00">v1.4.1</text>
</g>
<!-- github.com/rstudio/platform&#45;lib/pkg/rselection/impls/local&#45;&gt;github.com/rstudio/platform&#45;lib/pkg/rsnotify/listeners/local -->
<g id="edge5" class="edge">
<title>github.com/rstudio/platform&#45;lib/pkg/rselection/impls/local&#45;&gt;github.com/rstudio/platform&#45;lib/pkg/rsnotify/listeners/local</title>
<path fill="none" stroke="black" d="M309.76,-653.29C402.53,-635.75 543.11,-609.18 639.18,-591.01"/>
<polygon fill="black" stroke="black" points="640.04,-594.41 649.21,-589.11 638.74,-587.53 640.04,-594.41"/>
<text text-anchor="start" x="443.47" y="-625.15" font-family="Times,serif" font-size="10.00">v1.4.1</text>
</g>
<!-- github.com/rstudio/platform&#45;lib/pkg/rsnotify -->
<g id="node9" class="node">
<title>github.com/rstudio/platform&#45;lib/pkg/rsnotify</title>
<path fill="none" stroke="black" d="M886.73,-639.11C886.73,-639.11 578.73,-639.11 578.73,-639.11 572.73,-639.11 566.73,-633.11 566.73,-627.11 566.73,-627.11 566.73,-615.11 566.73,-615.11 566.73,-609.11 572.73,-603.11 578.73,-603.11 578.73,-603.11 886.73,-603.11 886.73,-603.11 892.73,-603.11 898.73,-609.11 898.73,-615.11 898.73,-615.11 898.73,-627.11 898.73,-627.11 898.73,-633.11 892.73,-639.11 886.73,-639.11"/>
<text text-anchor="start" x="574.73" y="-622.91" font-family="Times,serif" font-size="14.00">github.com/rstudio/platform&#45;lib/pkg/rsnotify</text>
<text text-anchor="start" x="717.23" y="-612.11" font-family="Times,serif" font-size="10.00">v1.4.0</text>
</g>
<!-- github.com/rstudio/platform&#45;lib/pkg/rselection/impls/local&#45;&gt;github.com/rstudio/platform&#45;lib/pkg/rsnotify -->
<g id="edge4" class="edge">
<title>github.com/rstudio/platform&#45;lib/pkg/rselection/impls/local&#45;&gt;github.com/rstudio/platform&#45;lib/pkg/rsnotify</title>
<path fill="none" stroke="black" d="M400.37,-653.31C451.29,-648.38 506.3,-643.05 556.64,-638.17"/>
<polygon fill="black" stroke="black" points="557.02,-641.65 566.64,-637.2 556.35,-634.68 557.02,-641.65"/>
<text text-anchor="start" x="447.5" y="-637.74" font-family="Times,serif" font-size="10.00">v1.4.0</text>
</g>
<!-- github.com/rstudio/platform&#45;lib/pkg/rselection/impls/pgx -->
<g id="node3" class="node">
<title>github.com/rstudio/platform&#45;lib/pkg/rselection/impls/pgx</title>
<path fill="none" stroke="black" d="M886.67,-686.74C886.67,-686.74 489.67,-686.74 489.67,-686.74 483.67,-686.74 477.67,-680.74 477.67,-674.74 477.67,-674.74 477.67,-662.74 477.67,-662.74 477.67,-656.74 483.67,-650.74 489.67,-650.74 489.67,-650.74 886.67,-650.74 886.67,-650.74 892.67,-650.74 898.67,-656.74 898.67,-662.74 898.67,-662.74 898.67,-674.74 898.67,-674.74 898.67,-680.74 892.67,-686.74 886.67,-686.74"/>
<text text-anchor="start" x="485.67" y="-670.54" font-family="Times,serif" font-size="14.00">github.com/rstudio/platform&#45;lib/pkg/rselection/impls/pgx</text>
<text text-anchor="start" x="672.67" y="-659.74" font-family="Times,serif" font-size="10.00">v0.1.2</text>
</g>
<!-- github.com/rstudio/platform&#45;lib/pkg/rselection/impls/pgx&#45;&gt;github.com/rstudio/platform&#45;lib/pkg/rselection -->
<g id="edge6" class="edge">
<title>github.com/rstudio/platform&#45;lib/pkg/rselection/impls/pgx&#45;&gt;github.com/rstudio/platform&#45;lib/pkg/rselection</title>
<path fill="none" stroke="black" d="M529.67,-686.76C493.42,-690.88 454.75,-695.28 418.07,-699.45"/>
<polygon fill="black" stroke="black" points="417.32,-696.01 407.78,-700.62 418.11,-702.97 417.32,-696.01"/>
<text text-anchor="start" x="442.87" y="-696.1" font-family="Times,serif" font-size="10.00">v0.1.1</text>
</g>
<!-- github.com/rstudio/platform&#45;lib/pkg/rsnotify/listeners/postgrespgx -->
<g id="node7" class="node">
<title>github.com/rstudio/platform&#45;lib/pkg/rsnotify/listeners/postgrespgx</title>
<path fill="none" stroke="black" d="M1135.9,-739.3C1135.9,-739.3 668.9,-739.3 668.9,-739.3 662.9,-739.3 656.9,-733.3 656.9,-727.3 656.9,-727.3 656.9,-715.3 656.9,-715.3 656.9,-709.3 662.9,-703.3 668.9,-703.3 668.9,-703.3 1135.9,-703.3 1135.9,-703.3 1141.9,-703.3 1147.9,-709.3 1147.9,-715.3 1147.9,-715.3 1147.9,-727.3 1147.9,-727.3 1147.9,-733.3 1141.9,-739.3 1135.9,-739.3"/>
<text text-anchor="start" x="664.9" y="-723.1" font-family="Times,serif" font-size="14.00">github.com/rstudio/platform&#45;lib/pkg/rsnotify/listeners/postgrespgx</text>
<text text-anchor="start" x="886.9" y="-712.3" font-family="Times,serif" font-size="10.00">v1.4.1</text>
</g>
<!-- github.com/rstudio/platform&#45;lib/pkg/rselection/impls/pgx&#45;&gt;github.com/rstudio/platform&#45;lib/pkg/rsnotify/listeners/postgrespgx -->
<g id="edge8" class="edge">
<title>github.com/rstudio/platform&#45;lib/pkg/rselection/impls/pgx&#45;&gt;github.com/rstudio/platform&#45;lib/pkg/rsnotify/listeners/postgrespgx</title>
<path fill="none" stroke="black" d="M761.6,-686.75C780.06,-691.28 800.01,-696.18 818.92,-700.82"/>
<polygon fill="black" stroke="black" points="818.16,-704.24 828.71,-703.22 819.83,-697.44 818.16,-704.24"/>
<text text-anchor="start" x="759.26" y="-696.79" font-family="Times,serif" font-size="10.00">v1.4.1</text>
</g>
<!-- github.com/rstudio/platform&#45;lib/pkg/rselection/impls/pgx&#45;&gt;github.com/rstudio/platform&#45;lib/pkg/rsnotify -->
<g id="edge7" class="edge">
<title>github.com/rstudio/platform&#45;lib/pkg/rselection/impls/pgx&#45;&gt;github.com/rstudio/platform&#45;lib/pkg/rsnotify</title>
<path fill="none" stroke="black" d="M705.02,-650.73C706.24,-649.42 707.48,-648.1 708.73,-646.76"/>
<polygon fill="black" stroke="black" points="711.59,-648.83 715.86,-639.14 706.47,-644.05 711.59,-648.83"/>
<text text-anchor="start" x="675.88" y="-640.74" font-family="Times,serif" font-size="10.00">v1.4.0</text>
</g>
<!-- github.com/rstudio/platform&#45;lib/pkg/rselection&#45;&gt;github.com/rstudio/platform&#45;lib/pkg/rsnotify -->
<g id="edge2" class="edge">
<title>github.com/rstudio/platform&#45;lib/pkg/rselection&#45;&gt;github.com/rstudio/platform&#45;lib/pkg/rsnotify</title>
<path fill="none" stroke="black" d="M338.41,-700.65C421.97,-683.79 546.62,-658.65 633.32,-641.16"/>
<polygon fill="black" stroke="black" points="634.06,-644.58 643.17,-639.17 632.68,-637.72 634.06,-644.58"/>
<text text-anchor="start" x="454.86" y="-673.91" font-family="Times,serif" font-size="10.00">v1.4.0</text>
</g>
<!-- github.com/rstudio/platform&#45;lib/pkg/rslog -->
<g id="node5" class="node">
<title>github.com/rstudio/platform&#45;lib/pkg/rslog</title>
<path fill="none" stroke="black" d="M1109.94,-359.95C1109.94,-359.95 821.94,-359.95 821.94,-359.95 815.94,-359.95 809.94,-353.95 809.94,-347.95 809.94,-347.95 809.94,-335.95 809.94,-335.95 809.94,-329.95 815.94,-323.95 821.94,-323.95 821.94,-323.95 1109.94,-323.95 1109.94,-323.95 1115.94,-323.95 1121.94,-329.95 1121.94,-335.95 1121.94,-335.95 1121.94,-347.95 1121.94,-347.95 1121.94,-353.95 1115.94,-359.95 1109.94,-359.95"/>
<text text-anchor="start" x="817.94" y="-343.75" font-family="Times,serif" font-size="14.00">github.com/rstudio/platform&#45;lib/pkg/rslog</text>
<text text-anchor="start" x="950.44" y="-332.95" font-family="Times,serif" font-size="10.00">v1.3.0</text>
</g>
<!-- github.com/rstudio/platform&#45;lib/pkg/rsnotify/listeners/local&#45;&gt;github.com/rstudio/platform&#45;lib/pkg/rsnotify -->
<g id="edge9" class="edge">
<title>github.com/rstudio/platform&#45;lib/pkg/rsnotify/listeners/local&#45;&gt;github.com/rstudio/platform&#45;lib/pkg/rsnotify</title>
<path fill="none" stroke="black" d="M740.44,-589.12C740.13,-590.38 739.82,-591.66 739.51,-592.96"/>
<polygon fill="black" stroke="black" points="736.06,-592.35 737.12,-602.89 742.86,-593.99 736.06,-592.35"/>
<text text-anchor="start" x="708.97" y="-594.04" font-family="Times,serif" font-size="10.00">v1.4.0</text>
</g>
<!-- github.com/rstudio/platform&#45;lib/pkg/rsnotify/listeners/postgrespgx&#45;&gt;github.com/rstudio/platform&#45;lib/pkg/rsnotify -->
<g id="edge10" class="edge">
<title>github.com/rstudio/platform&#45;lib/pkg/rsnotify/listeners/postgrespgx&#45;&gt;github.com/rstudio/platform&#45;lib/pkg/rsnotify</title>
<path fill="none" stroke="black" d="M871.67,-703.16C843.69,-686.63 802.22,-662.14 771.87,-644.22"/>
<polygon fill="black" stroke="black" points="773.62,-641.19 763.23,-639.12 770.06,-647.22 773.62,-641.19"/>
<text text-anchor="start" x="790.77" y="-676.69" font-family="Times,serif" font-size="10.00">v1.4.0</text>
</g>
<!-- github.com/rstudio/platform&#45;lib/pkg/rsnotify/listeners/postgrespq -->
<g id="node8" class="node">
<title>github.com/rstudio/platform&#45;lib/pkg/rsnotify/listeners/postgrespq</title>
<path fill="none" stroke="black" d="M859.74,-35.85C859.74,-35.85 400.74,-35.85 400.74,-35.85 394.74,-35.85 388.74,-29.85 388.74,-23.85 388.74,-23.85 388.74,-11.85 388.74,-11.85 388.74,-5.85 394.74,0.15 400.74,0.15 400.74,0.15 859.74,0.15 859.74,0.15 865.74,0.15 871.74,-5.85 871.74,-11.85 871.74,-11.85 871.74,-23.85 871.74,-23.85 871.74,-29.85 865.74,-35.85 859.74,-35.85"/>
<text text-anchor="start" x="396.74" y="-19.65" font-family="Times,serif" font-size="14.00">github.com/rstudio/platform&#45;lib/pkg/rsnotify/listeners/postgrespq</text>
<text text-anchor="start" x="614.74" y="-8.85" font-family="Times,serif" font-size="10.00">v1.4.1</text>
</g>
<!-- github.com/rstudio/platform&#45;lib/pkg/rsnotify/listeners/postgrespq&#45;&gt;github.com/rstudio/platform&#45;lib/pkg/rsnotify -->
<g id="edge11" class="edge">
<title>github.com/rstudio/platform&#45;lib/pkg/rsnotify/listeners/postgrespq&#45;&gt;github.com/rstudio/platform&#45;lib/pkg/rsnotify</title>
<path fill="none" stroke="black" d="M633.31,-35.9C647.86,-121.58 710.01,-487.37 727.9,-592.65"/>
<polygon fill="black" stroke="black" points="724.5,-593.56 729.62,-602.83 731.4,-592.38 724.5,-593.56"/>
<text text-anchor="start" x="649.6" y="-317.28" font-family="Times,serif" font-size="10.00">v1.4.0</text>
</g>
<!-- github.com/rstudio/platform&#45;lib/pkg/rsqueue/impls/database -->
<g id="node10" class="node">
<title>github.com/rstudio/platform&#45;lib/pkg/rsqueue/impls/database</title>
<path fill="none" stroke="black" d="M1476.26,-510.99C1476.26,-510.99 1054.26,-510.99 1054.26,-510.99 1048.26,-510.99 1042.26,-504.99 1042.26,-498.99 1042.26,-498.99 1042.26,-486.99 1042.26,-486.99 1042.26,-480.99 1048.26,-474.99 1054.26,-474.99 1054.26,-474.99 1476.26,-474.99 1476.26,-474.99 1482.26,-474.99 1488.26,-480.99 1488.26,-486.99 1488.26,-486.99 1488.26,-498.99 1488.26,-498.99 1488.26,-504.99 1482.26,-510.99 1476.26,-510.99"/>
<text text-anchor="start" x="1050.26" y="-494.79" font-family="Times,serif" font-size="14.00">github.com/rstudio/platform&#45;lib/pkg/rsqueue/impls/database</text>
<text text-anchor="start" x="1249.76" y="-483.99" font-family="Times,serif" font-size="10.00">v0.1.1</text>
</g>
<!-- github.com/rstudio/platform&#45;lib/pkg/rsqueue/impls/database&#45;&gt;github.com/rstudio/platform&#45;lib/pkg/rsnotify/listeners/local -->
<g id="edge14" class="edge">
<title>github.com/rstudio/platform&#45;lib/pkg/rsqueue/impls/database&#45;&gt;github.com/rstudio/platform&#45;lib/pkg/rsnotify/listeners/local</title>
<path fill="none" stroke="black" d="M1145.2,-510.99C1064.42,-523.11 957.97,-539.07 875.13,-551.5"/>
<polygon fill="black" stroke="black" points="874.52,-548.05 865.15,-552.99 875.56,-554.97 874.52,-548.05"/>
<text text-anchor="start" x="979.16" y="-534.25" font-family="Times,serif" font-size="10.00">v1.4.1</text>
</g>
<!-- github.com/rstudio/platform&#45;lib/pkg/rsqueue/impls/database&#45;&gt;github.com/rstudio/platform&#45;lib/pkg/rsnotify -->
<g id="edge13" class="edge">
<title>github.com/rstudio/platform&#45;lib/pkg/rsqueue/impls/database&#45;&gt;github.com/rstudio/platform&#45;lib/pkg/rsnotify</title>
<path fill="none" stroke="black" d="M1190.37,-511.01C1092.13,-534.64 920.18,-576.01 817.34,-600.75"/>
<polygon fill="black" stroke="black" points="816.51,-597.35 807.6,-603.09 818.14,-604.16 816.51,-597.35"/>
<text text-anchor="start" x="972.85" y="-558.88" font-family="Times,serif" font-size="10.00">v1.4.0</text>
</g>
<!-- github.com/rstudio/platform&#45;lib/pkg/rsqueue -->
<g id="node11" class="node">
<title>github.com/rstudio/platform&#45;lib/pkg/rsqueue</title>
<path fill="none" stroke="black" d="M1393.15,-555.03C1393.15,-555.03 1083.15,-555.03 1083.15,-555.03 1077.15,-555.03 1071.15,-549.03 1071.15,-543.03 1071.15,-543.03 1071.15,-531.03 1071.15,-531.03 1071.15,-525.03 1077.15,-519.03 1083.15,-519.03 1083.15,-519.03 1393.15,-519.03 1393.15,-519.03 1399.15,-519.03 1405.15,-525.03 1405.15,-531.03 1405.15,-531.03 1405.15,-543.03 1405.15,-543.03 1405.15,-549.03 1399.15,-555.03 1393.15,-555.03"/>
<text text-anchor="start" x="1079.15" y="-538.83" font-family="Times,serif" font-size="14.00">github.com/rstudio/platform&#45;lib/pkg/rsqueue</text>
<text text-anchor="start" x="1222.65" y="-528.03" font-family="Times,serif" font-size="10.00">v0.1.1</text>
</g>
<!-- github.com/rstudio/platform&#45;lib/pkg/rsqueue/impls/database&#45;&gt;github.com/rstudio/platform&#45;lib/pkg/rsqueue -->
<g id="edge15" class="edge">
<title>github.com/rstudio/platform&#45;lib/pkg/rsqueue/impls/database&#45;&gt;github.com/rstudio/platform&#45;lib/pkg/rsqueue</title>
<path fill="none" stroke="black" d="M1254.08,-511.16C1253.98,-511.32 1253.88,-511.48 1253.78,-511.64"/>
<polygon fill="black" stroke="black" points="1251.57,-508.55 1249.31,-518.9 1257.53,-512.22 1251.57,-508.55"/>
<text text-anchor="start" x="1222.93" y="-514.4" font-family="Times,serif" font-size="10.00">v0.1.1</text>
</g>
<!-- github.com/rstudio/platform&#45;lib/pkg/rsqueue&#45;&gt;github.com/rstudio/platform&#45;lib/pkg/rsnotify -->
<g id="edge12" class="edge">
<title>github.com/rstudio/platform&#45;lib/pkg/rsqueue&#45;&gt;github.com/rstudio/platform&#45;lib/pkg/rsnotify</title>
<path fill="none" stroke="black" d="M1129.73,-555.07C1047.7,-568.71 935.17,-587.43 850.85,-601.46"/>
<polygon fill="black" stroke="black" points="850.27,-598.01 840.98,-603.1 851.42,-604.91 850.27,-598.01"/>
<text text-anchor="start" x="990.29" y="-581.26" font-family="Times,serif" font-size="10.00">v1.4.0</text>
</g>
<!-- github.com/rstudio/platform&#45;lib/pkg/rsstorage/servers/file -->
<g id="node12" class="node">
<title>github.com/rstudio/platform&#45;lib/pkg/rsstorage/servers/file</title>
<path fill="none" stroke="black" d="M1631.45,-1301.55C1631.45,-1301.55 1227.45,-1301.55 1227.45,-1301.55 1221.45,-1301.55 1215.45,-1295.55 1215.45,-1289.55 1215.45,-1289.55 1215.45,-1277.55 1215.45,-1277.55 1215.45,-1271.55 1221.45,-1265.55 1227.45,-1265.55 1227.45,-1265.55 1631.45,-1265.55 1631.45,-1265.55 1637.45,-1265.55 1643.45,-1271.55 1643.45,-1277.55 1643.45,-1277.55 1643.45,-1289.55 1643.45,-1289.55 1643.45,-1295.55 1637.45,-1301.55 1631.45,-1301.55"/>
<text text-anchor="start" x="1223.45" y="-1285.35" font-family="Times,serif" font-size="14.00">github.com/rstudio/platform&#45;lib/pkg/rsstorage/servers/file</text>
<text text-anchor="start" x="1413.95" y="-1274.55" font-family="Times,serif" font-size="10.00">v0.3.1</text>
</g>
<!-- github.com/rstudio/platform&#45;lib/pkg/rsstorage/servers/file&#45;&gt;github.com/rstudio/platform&#45;lib/pkg/rsstorage -->
<g id="edge16" class="edge">
<title>github.com/rstudio/platform&#45;lib/pkg/rsstorage/servers/file&#45;&gt;github.com/rstudio/platform&#45;lib/pkg/rsstorage</title>
<path fill="none" stroke="black" d="M1478.51,-1265.55C1516.25,-1251.7 1568.54,-1232.51 1608.58,-1217.83"/>
<polygon fill="black" stroke="black" points="1610.03,-1221.02 1618.21,-1214.29 1607.62,-1214.45 1610.03,-1221.02"/>
<text text-anchor="start" x="1512.54" y="-1244.69" font-family="Times,serif" font-size="10.00">v0.3.0</text>
</g>
<!-- github.com/rstudio/platform&#45;lib/pkg/rsstorage/servers/postgres -->
<g id="node13" class="node">
<title>github.com/rstudio/platform&#45;lib/pkg/rsstorage/servers/postgres</title>
<path fill="none" stroke="black" d="M2109.15,-1281.54C2109.15,-1281.54 1664.15,-1281.54 1664.15,-1281.54 1658.15,-1281.54 1652.15,-1275.54 1652.15,-1269.54 1652.15,-1269.54 1652.15,-1257.54 1652.15,-1257.54 1652.15,-1251.54 1658.15,-1245.54 1664.15,-1245.54 1664.15,-1245.54 2109.15,-1245.54 2109.15,-1245.54 2115.15,-1245.54 2121.15,-1251.54 2121.15,-1257.54 2121.15,-1257.54 2121.15,-1269.54 2121.15,-1269.54 2121.15,-1275.54 2115.15,-1281.54 2109.15,-1281.54"/>
<text text-anchor="start" x="1660.15" y="-1265.34" font-family="Times,serif" font-size="14.00">github.com/rstudio/platform&#45;lib/pkg/rsstorage/servers/postgres</text>
<text text-anchor="start" x="1871.15" y="-1254.54" font-family="Times,serif" font-size="10.00">v0.3.1</text>
</g>
<!-- github.com/rstudio/platform&#45;lib/pkg/rsstorage/servers/postgres&#45;&gt;github.com/rstudio/platform&#45;lib/pkg/rsstorage -->
<g id="edge17" class="edge">
<title>github.com/rstudio/platform&#45;lib/pkg/rsstorage/servers/postgres&#45;&gt;github.com/rstudio/platform&#45;lib/pkg/rsstorage</title>
<path fill="none" stroke="black" d="M1827.95,-1245.48C1799.72,-1236.8 1765.69,-1226.33 1736.26,-1217.28"/>
<polygon fill="black" stroke="black" points="1737.06,-1213.86 1726.47,-1214.27 1735,-1220.55 1737.06,-1213.86"/>
<text text-anchor="start" x="1751.11" y="-1234.38" font-family="Times,serif" font-size="10.00">v0.3.0</text>
</g>
<!-- github.com/rstudio/platform&#45;lib/pkg/rsstorage/servers/s3server -->
<g id="node14" class="node">
<title>github.com/rstudio/platform&#45;lib/pkg/rsstorage/servers/s3server</title>
<path fill="none" stroke="black" d="M1900.81,-1165.67C1900.81,-1165.67 1455.81,-1165.67 1455.81,-1165.67 1449.81,-1165.67 1443.81,-1159.67 1443.81,-1153.67 1443.81,-1153.67 1443.81,-1141.67 1443.81,-1141.67 1443.81,-1135.67 1449.81,-1129.67 1455.81,-1129.67 1455.81,-1129.67 1900.81,-1129.67 1900.81,-1129.67 1906.81,-1129.67 1912.81,-1135.67 1912.81,-1141.67 1912.81,-1141.67 1912.81,-1153.67 1912.81,-1153.67 1912.81,-1159.67 1906.81,-1165.67 1900.81,-1165.67"/>
<text text-anchor="start" x="1451.81" y="-1149.47" font-family="Times,serif" font-size="14.00">github.com/rstudio/platform&#45;lib/pkg/rsstorage/servers/s3server</text>
<text text-anchor="start" x="1662.81" y="-1138.67" font-family="Times,serif" font-size="10.00">v0.3.1</text>
</g>
<!-- github.com/rstudio/platform&#45;lib/pkg/rsstorage/servers/s3server&#45;&gt;github.com/rstudio/platform&#45;lib/pkg/rsstorage -->
<g id="edge18" class="edge">
<title>github.com/rstudio/platform&#45;lib/pkg/rsstorage/servers/s3server&#45;&gt;github.com/rstudio/platform&#45;lib/pkg/rsstorage</title>
<path fill="none" stroke="black" d="M1674.33,-1165.72C1674.17,-1166.47 1674,-1167.23 1673.83,-1167.99"/>
<polygon fill="black" stroke="black" points="1670.37,-1167.41 1671.64,-1177.93 1677.21,-1168.92 1670.37,-1167.41"/>
<text text-anchor="start" x="1643.08" y="-1169.86" font-family="Times,serif" font-size="10.00">v0.3.0</text>
</g>
</g>
</svg>
